<svg xmlns="http://www.w3.org/2000/svg" viewBox="0 0 153.239 102.159"><defs><style>.a{fill:#fff;}.b{fill:#b00;}.c{fill:#060;}</style></defs><g transform="translate(215 -6)"><rect class="a" width="153.239" height="102.159" transform="translate(-215 6)"/><rect width="153.239" height="30.648" transform="translate(-215 6)"/><rect class="b" width="153.239" height="30.648" transform="translate(-215 41.756)"/><rect class="c" width="153.239" height="30.648" transform="translate(-215 77.512)"/><g transform="translate(-160.683 20.366)"><g transform="translate(2.949 0)"><path d="M1.277,76.677H2.554V17.024c1.277-1.277,1.277-3.192,1.277-5.108A37.069,37.069,0,0,0,1.915,0,37.069,37.069,0,0,0,0,11.916c0,1.915,0,3.831,1.277,5.108Z" transform="matrix(0.866, 0.5, -0.5, 0.866, 38.338, 0)"/><path class="a" d="M1.277,76.677H2.554V17.024c1.277-1.277,1.277-3.192,1.277-5.108A37.069,37.069,0,0,0,1.915,0,37.069,37.069,0,0,0,0,11.916c0,1.915,0,3.831,1.277,5.108Z" transform="matrix(0.866, 0.5, -0.5, 0.866, 38.338, 0)"/></g><g transform="translate(41.656 68.319) rotate(180)"><path d="M1.277,0H2.554V59.652c1.277,1.277,1.277,3.192,1.277,5.108A37.069,37.069,0,0,1,1.915,76.677,37.069,37.069,0,0,1,0,64.76c0-1.915,0-3.831,1.277-5.108Z" transform="matrix(0.866, -0.5, 0.5, 0.866, 0, 1.915)"/><path class="a" d="M1.277,0H2.554V59.652c1.277,1.277,1.277,3.192,1.277,5.108A37.069,37.069,0,0,1,1.915,76.677,37.069,37.069,0,0,1,0,64.76c0-1.915,0-3.831,1.277-5.108Z" transform="matrix(0.866, -0.5, 0.5, 0.866, 0, 1.915)"/></g><path class="b" d="M-71.25-134.028c1.915,5.108,8.3,15.324,12.131,15.324S-48.9-128.92-46.987-134.028v-30.648C-48.9-169.784-55.288-180-59.119-180s-10.216,10.216-12.131,15.324Z" transform="translate(81.421 186.066)"/><path d="M55.692-59.352a43.889,43.889,0,0,0,3.192-15.324A43.889,43.889,0,0,0,55.692-90,43.889,43.889,0,0,0,52.5-74.676,43.889,43.889,0,0,0,55.692-59.352Z" transform="translate(-21.259 111.39)"/><path d="M3.192,0A43.889,43.889,0,0,1,6.385,15.324,43.889,43.889,0,0,1,3.192,30.648,43.889,43.889,0,0,1,0,15.324,43.889,43.889,0,0,1,3.192,0Z" transform="translate(13.364 52.038) rotate(180)"/><g transform="translate(19.11 6.162)"><ellipse class="a" cx="2.554" cy="3.831" rx="2.554" ry="3.831" transform="translate(0.638 26.721)"/><path class="a" d="M3.75,21.938S6.3,27.045,6.3,35.346,3.75,48.754,3.75,48.754Z" transform="translate(0.081 12.35)"/><path class="a" d="M0,0S2.554,5.108,2.554,13.408,0,26.817,0,26.817Z" transform="translate(2.554 26.817) rotate(180)"/><path class="a" d="M0,26.817s2.554-5.108,2.554-13.408S0,0,0,0Z" transform="translate(2.554 61.104) rotate(180)"/><path class="a" d="M3.75-152.621S6.3-157.729,6.3-166.029,3.75-179.438,3.75-179.438Z" transform="translate(0.081 179.438)"/></g></g></g></svg>